<?xml version="1.0" encoding="UTF-8"?>
<!DOCTYPE svg PUBLIC "-//W3C//DTD SVG 1.1//EN" "http://www.w3.org/Graphics/SVG/1.1/DTD/svg11.dtd">
<svg xmlns="http://www.w3.org/2000/svg" version="1.1" width="589px" height="424px" style="shape-rendering:geometricPrecision; text-rendering:geometricPrecision; image-rendering:optimizeQuality; fill-rule:evenodd; clip-rule:evenodd" xmlns:xlink="http://www.w3.org/1999/xlink">
<g><path style="opacity:0.949" fill="#df7971" d="M 389.5,10.5 C 388.391,10.5569 387.391,10.8902 386.5,11.5C 386.686,6.69047 387.686,6.35714 389.5,10.5 Z"/></g>
<g><path style="opacity:1" fill="#f90503" d="M 407.5,31.5 C 408.167,31.8333 408.833,32.1667 409.5,32.5C 410.167,33.5 410.833,34.5 411.5,35.5C 412.097,38.4274 413.764,40.4274 416.5,41.5C 417.774,45.1062 420.107,47.7728 423.5,49.5C 424.5,49.8333 425.167,50.5 425.5,51.5C 425.833,52.8333 426.167,54.1667 426.5,55.5C 417.846,59.4957 408.846,62.4957 399.5,64.5C 391.662,64.4583 383.995,65.125 376.5,66.5C 376.5,63.8333 376.5,61.1667 376.5,58.5C 376.5,58.1667 376.5,57.8333 376.5,57.5C 377.966,56.653 378.8,55.3197 379,53.5C 379.498,50.5184 379.665,47.5184 379.5,44.5C 379.205,42.2646 379.539,40.2646 380.5,38.5C 381.117,38.3893 381.617,38.056 382,37.5C 382.497,34.854 382.664,32.1873 382.5,29.5C 384.136,28.2511 385.303,26.5844 386,24.5C 386.392,20.4724 386.892,16.4724 387.5,12.5C 388.5,12.5 389.5,12.5 390.5,12.5C 389.854,16.7526 391.52,19.5859 395.5,21C 395.167,21.3333 394.833,21.6667 394.5,22C 395.793,22.49 397.127,22.6567 398.5,22.5C 398.281,23.675 398.614,24.675 399.5,25.5C 402.185,27.5244 404.852,29.5244 407.5,31.5 Z"/></g>
<g><path style="opacity:1" fill="#232222" d="M 424.5,25.5 C 423.711,25.7828 423.044,26.2828 422.5,27C 428.491,27.4995 434.491,27.6662 440.5,27.5C 458,31.1448 460,38.9782 446.5,51C 442.256,54.2885 437.59,56.7885 432.5,58.5C 432.167,58.5 431.833,58.5 431.5,58.5C 429.027,58.9118 427.694,57.9118 427.5,55.5C 428.71,55.0679 429.71,54.4013 430.5,53.5C 434.465,51.1816 438.465,48.8483 442.5,46.5C 445.5,45.5 447.5,43.5 448.5,40.5C 448.557,39.391 448.89,38.391 449.5,37.5C 449.5,35.5 448.5,34.5 446.5,34.5C 443.733,34.1417 441.067,33.475 438.5,32.5C 434.019,31.3516 429.352,31.1849 424.5,32C 425.244,33.0386 426.244,33.5386 427.5,33.5C 431.485,33.6294 432.818,35.4628 431.5,39C 430.667,39.1667 429.833,39.3333 429,39.5C 422.769,37.2998 416.603,34.9665 410.5,32.5C 410.167,31.8333 409.833,31.1667 409.5,30.5C 411.027,30.573 412.027,29.9063 412.5,28.5C 416.852,23.9871 421.685,19.9871 427,16.5C 428.757,17.1189 429.924,18.2856 430.5,20C 429.293,22.7074 427.293,24.5407 424.5,25.5 Z"/></g>
<g><path style="opacity:0.863" fill="#f39488" d="M 399.5,21.5 C 400.906,21.9731 401.573,22.9731 401.5,24.5C 400.094,24.0269 399.427,23.0269 399.5,21.5 Z"/></g>
<g><path style="opacity:1" fill="#ea3f2f" d="M 389.5,10.5 C 393.525,13.5579 396.858,17.2245 399.5,21.5C 399.427,23.0269 400.094,24.0269 401.5,24.5C 403.833,26.1667 405.833,28.1667 407.5,30.5C 407.5,30.8333 407.5,31.1667 407.5,31.5C 404.852,29.5244 402.185,27.5244 399.5,25.5C 398.614,24.675 398.281,23.675 398.5,22.5C 397.127,22.6567 395.793,22.49 394.5,22C 394.833,21.6667 395.167,21.3333 395.5,21C 391.52,19.5859 389.854,16.7526 390.5,12.5C 389.5,12.5 388.5,12.5 387.5,12.5C 386.892,16.4724 386.392,20.4724 386,24.5C 385.303,26.5844 384.136,28.2511 382.5,29.5C 383.215,23.2447 384.549,17.2447 386.5,11.5C 387.391,10.8902 388.391,10.5569 389.5,10.5 Z"/></g>
<g><path style="opacity:0.659" fill="#828282" d="M 424.5,25.5 C 429.833,26.1667 435.167,26.8333 440.5,27.5C 434.491,27.6662 428.491,27.4995 422.5,27C 423.044,26.2828 423.711,25.7828 424.5,25.5 Z"/></g>
<g><path style="opacity:0.729" fill="#898688" d="M 412.5,28.5 C 412.027,29.9063 411.027,30.573 409.5,30.5C 409.973,29.0937 410.973,28.427 412.5,28.5 Z"/></g>
<g><path style="opacity:0.051" fill="#ffefef" d="M 407.5,31.5 C 407.5,31.1667 407.5,30.8333 407.5,30.5C 408.167,30.5 408.833,30.5 409.5,30.5C 409.833,31.1667 410.167,31.8333 410.5,32.5C 410.167,32.5 409.833,32.5 409.5,32.5C 408.833,32.1667 408.167,31.8333 407.5,31.5 Z"/></g>
<g><path style="opacity:0.439" fill="#8d8d8f" d="M 438.5,32.5 C 434.629,32.185 430.962,32.5184 427.5,33.5C 426.244,33.5386 425.244,33.0386 424.5,32C 429.352,31.1849 434.019,31.3516 438.5,32.5 Z"/></g>
<g><path style="opacity:0.757" fill="#9c9c9c" d="M 446.5,34.5 C 448.5,34.5 449.5,35.5 449.5,37.5C 448.167,36.8333 447.167,35.8333 446.5,34.5 Z"/></g>
<g><path style="opacity:1" fill="#ed5b50" d="M 382.5,29.5 C 382.664,32.1873 382.497,34.854 382,37.5C 381.617,38.056 381.117,38.3893 380.5,38.5C 380.676,35.2727 381.343,32.2727 382.5,29.5 Z"/></g>
<g><path style="opacity:1" fill="#2c2c2c" d="M 355.5,68.5 C 360.975,69.4889 366.642,69.8222 372.5,69.5C 371.34,70.265 370.34,71.265 369.5,72.5C 370.325,73.3857 371.325,73.719 372.5,73.5C 372.5,73.8333 372.5,74.1667 372.5,74.5C 363.669,75.0803 355.002,74.2469 346.5,72C 339.608,69.149 337.775,64.3157 341,57.5C 350.649,47.5864 362.149,40.5864 375.5,36.5C 376.782,38.1792 377.782,40.0126 378.5,42C 370.998,44.9458 363.665,48.2791 356.5,52C 352.445,54.6013 348.945,57.7679 346,61.5C 345.289,63.3668 345.789,64.8668 347.5,66C 350.135,67.0242 352.802,67.8575 355.5,68.5 Z"/></g>
<g><path style="opacity:1" fill="#ee6a60" d="M 411.5,35.5 C 413.89,36.8908 415.557,38.8908 416.5,41.5C 413.764,40.4274 412.097,38.4274 411.5,35.5 Z"/></g>
<g><path style="opacity:1" fill="#ed6859" d="M 416.5,41.5 C 419.573,43.5691 421.906,46.2358 423.5,49.5C 420.107,47.7728 417.774,45.1062 416.5,41.5 Z"/></g>
<g><path style="opacity:0.773" fill="#939393" d="M 448.5,40.5 C 447.5,43.5 445.5,45.5 442.5,46.5C 444.167,44.1667 446.167,42.1667 448.5,40.5 Z"/></g>
<g><path style="opacity:1" fill="#e75d4f" d="M 379.5,44.5 C 379.665,47.5184 379.498,50.5184 379,53.5C 378.8,55.3197 377.966,56.653 376.5,57.5C 376.882,52.9082 377.882,48.5749 379.5,44.5 Z"/></g>
<g><path style="opacity:1" fill="#ca766c" d="M 425.5,51.5 C 426.82,52.9418 428.486,53.6085 430.5,53.5C 429.71,54.4013 428.71,55.0679 427.5,55.5C 427.167,55.5 426.833,55.5 426.5,55.5C 426.167,54.1667 425.833,52.8333 425.5,51.5 Z"/></g>
<g><path style="opacity:0.757" fill="#f8a19a" d="M 433.5,60.5 C 434.906,60.9731 435.573,61.9731 435.5,63.5C 434.094,63.0269 433.427,62.0269 433.5,60.5 Z"/></g>
<g><path style="opacity:1" fill="#f90703" d="M 431.5,58.5 C 431.833,58.5 432.167,58.5 432.5,58.5C 432.833,59.1667 433.167,59.8333 433.5,60.5C 433.427,62.0269 434.094,63.0269 435.5,63.5C 437.167,64.5 438.5,65.8333 439.5,67.5C 439.837,69.672 440.837,71.5054 442.5,73C 442.257,73.9021 441.923,74.7354 441.5,75.5C 441.167,75.5 440.833,75.5 440.5,75.5C 437.449,75.3645 434.449,75.6978 431.5,76.5C 430.287,76.7472 429.62,77.4138 429.5,78.5C 426.167,78.5 422.833,78.5 419.5,78.5C 419.215,81.8291 419.882,84.8291 421.5,87.5C 423.102,91.2393 424.102,95.2393 424.5,99.5C 423.964,102.698 424.631,105.365 426.5,107.5C 427.434,108.568 427.768,109.901 427.5,111.5C 427.5,112.833 427.5,114.167 427.5,115.5C 428.833,119.5 428.833,123.5 427.5,127.5C 428.5,127.5 429.5,127.5 430.5,127.5C 430.617,131.249 431.284,134.916 432.5,138.5C 432.449,140.1 432.116,141.6 431.5,143C 432.448,143.483 433.448,143.649 434.5,143.5C 434.285,145.179 434.952,146.179 436.5,146.5C 436.41,149.152 437.076,151.485 438.5,153.5C 438.5,156.167 438.5,158.833 438.5,161.5C 435.941,161.198 433.607,161.532 431.5,162.5C 425.858,163.459 420.191,164.793 414.5,166.5C 414.737,165.209 414.404,164.209 413.5,163.5C 413.5,163.167 413.5,162.833 413.5,162.5C 414.01,159.612 413.344,157.279 411.5,155.5C 410.699,153.958 410.366,152.292 410.5,150.5C 410.826,146.116 410.492,141.783 409.5,137.5C 408.482,136.807 407.482,136.141 406.5,135.5C 407.036,132.302 406.369,129.635 404.5,127.5C 404.798,121.531 403.465,116.198 400.5,111.5C 400.663,109.143 400.497,106.81 400,104.5C 399.764,102.881 398.931,101.881 397.5,101.5C 397.5,101.167 397.5,100.833 397.5,100.5C 397.662,98.4727 397.495,96.4727 397,94.5C 396.617,93.944 396.117,93.6107 395.5,93.5C 395.5,93.1667 395.5,92.8333 395.5,92.5C 395.5,90.5 395.5,88.5 395.5,86.5C 391.191,87.3132 386.857,88.1465 382.5,89C 381.944,89.3826 381.611,89.8826 381.5,90.5C 377.802,90.5524 374.135,90.8857 370.5,91.5C 370.5,89.5 370.5,87.5 370.5,85.5C 370.216,83.5853 370.549,81.9187 371.5,80.5C 372.738,78.7857 373.405,76.7857 373.5,74.5C 380.554,74.1829 387.554,73.3495 394.5,72C 395.056,71.6174 395.389,71.1174 395.5,70.5C 402.771,70.6203 409.438,68.9536 415.5,65.5C 420.788,63.192 426.122,60.8587 431.5,58.5 Z"/></g>
<g><path style="opacity:1" fill="#ca241b" d="M 376.5,58.5 C 376.5,61.1667 376.5,63.8333 376.5,66.5C 383.995,65.125 391.662,64.4583 399.5,64.5C 391.511,66.9972 383.178,68.3305 374.5,68.5C 374.5,68.1667 374.5,67.8333 374.5,67.5C 374.42,64.2186 375.087,61.2186 376.5,58.5 Z"/></g>
<g><path style="opacity:1" fill="#bf0c0b" d="M 415.5,65.5 C 409.438,68.9536 402.771,70.6203 395.5,70.5C 401.938,68.3408 408.604,66.6742 415.5,65.5 Z"/></g>
<g><path style="opacity:0.239" fill="#a69ea0" d="M 374.5,67.5 C 374.5,67.8333 374.5,68.1667 374.5,68.5C 374.158,69.3382 373.492,69.6716 372.5,69.5C 366.642,69.8222 360.975,69.4889 355.5,68.5C 361.923,68.7912 368.256,68.4578 374.5,67.5 Z"/></g>
<g><path style="opacity:1" fill="#1d0200" d="M 426.5,55.5 C 426.833,55.5 427.167,55.5 427.5,55.5C 427.694,57.9118 429.027,58.9118 431.5,58.5C 426.122,60.8587 420.788,63.192 415.5,65.5C 408.604,66.6742 401.938,68.3408 395.5,70.5C 387.883,71.8902 380.216,72.8902 372.5,73.5C 371.325,73.719 370.325,73.3857 369.5,72.5C 370.34,71.265 371.34,70.265 372.5,69.5C 373.492,69.6716 374.158,69.3382 374.5,68.5C 383.178,68.3305 391.511,66.9972 399.5,64.5C 408.846,62.4957 417.846,59.4957 426.5,55.5 Z"/></g>
<g><path style="opacity:1" fill="#e7756b" d="M 439.5,67.5 C 442.002,69.1696 444.002,71.3363 445.5,74C 444.437,75.1882 443.103,75.6882 441.5,75.5C 441.923,74.7354 442.257,73.9021 442.5,73C 440.837,71.5054 439.837,69.672 439.5,67.5 Z"/></g>
<g><path style="opacity:1" fill="#ca2f25" d="M 395.5,70.5 C 395.389,71.1174 395.056,71.6174 394.5,72C 387.554,73.3495 380.554,74.1829 373.5,74.5C 373.405,76.7857 372.738,78.7857 371.5,80.5C 371.517,78.4352 371.85,76.4352 372.5,74.5C 372.5,74.1667 372.5,73.8333 372.5,73.5C 380.216,72.8902 387.883,71.8902 395.5,70.5 Z"/></g>
<g><path style="opacity:1" fill="#f07663" d="M 440.5,75.5 C 437.093,77.0743 433.427,78.0743 429.5,78.5C 429.62,77.4138 430.287,76.7472 431.5,76.5C 434.449,75.6978 437.449,75.3645 440.5,75.5 Z"/></g>
<g><path style="opacity:1" fill="#1a1a1b" d="M 555.5,81.5 C 557.388,83.9878 558.055,86.9878 557.5,90.5C 557.682,99.8703 557.182,109.204 556,118.5C 553.541,121.1 551.041,121.1 548.5,118.5C 547.403,113.812 547.236,109.145 548,104.5C 539.49,117.528 530.99,130.528 522.5,143.5C 520.738,144.262 519.738,145.596 519.5,147.5C 514.677,151.795 511.343,157.128 509.5,163.5C 508.833,163.5 508.5,163.833 508.5,164.5C 508.5,165.167 508.167,165.5 507.5,165.5C 507.698,163.425 507.865,161.425 508,159.5C 507,158.833 506,158.167 505,157.5C 504.29,158.973 503.124,159.64 501.5,159.5C 502.6,158.395 503.267,157.062 503.5,155.5C 507.746,150.009 511.746,144.342 515.5,138.5C 517.418,133.657 520.084,129.323 523.5,125.5C 524.906,125.027 525.573,124.027 525.5,122.5C 526.906,122.027 527.573,121.027 527.5,119.5C 528.906,119.027 529.573,118.027 529.5,116.5C 532.384,110.936 535.718,105.602 539.5,100.5C 539.333,100.167 539.167,99.8333 539,99.5C 535.574,101.713 531.908,103.38 528,104.5C 523.918,103.841 522.584,101.508 524,97.5C 534.164,91.5016 544.664,86.1682 555.5,81.5 Z"/></g>
<g><path style="opacity:0.969" fill="#ef7265" d="M 429.5,78.5 C 426.727,79.6572 423.727,80.3239 420.5,80.5C 420.993,82.8056 421.326,85.139 421.5,87.5C 419.882,84.8291 419.215,81.8291 419.5,78.5C 422.833,78.5 426.167,78.5 429.5,78.5 Z"/></g>
<g><path style="opacity:1" fill="#ea6353" d="M 395.5,92.5 C 394.566,91.4324 394.232,90.099 394.5,88.5C 390.193,89.3266 385.86,89.9933 381.5,90.5C 381.611,89.8826 381.944,89.3826 382.5,89C 386.857,88.1465 391.191,87.3132 395.5,86.5C 395.5,88.5 395.5,90.5 395.5,92.5 Z"/></g>
<g><path style="opacity:0.031" fill="#d1d1d1" d="M 555.5,81.5 C 556.209,80.596 557.209,80.2627 558.5,80.5C 558.813,84.0419 558.479,87.3752 557.5,90.5C 558.055,86.9878 557.388,83.9878 555.5,81.5 Z"/></g>
<g><path style="opacity:1" fill="#e7584c" d="M 370.5,85.5 C 370.5,87.5 370.5,89.5 370.5,91.5C 374.135,90.8857 377.802,90.5524 381.5,90.5C 378.146,92.2576 374.479,93.2576 370.5,93.5C 369.596,92.791 369.263,91.791 369.5,90.5C 369.216,88.5853 369.549,86.9187 370.5,85.5 Z"/></g>
<g><path style="opacity:0.055" fill="#fce1df" d="M 369.5,90.5 C 369.263,91.791 369.596,92.791 370.5,93.5C 369.528,94.7514 368.861,94.418 368.5,92.5C 368.543,91.5836 368.876,90.9169 369.5,90.5 Z"/></g>
<g><path style="opacity:1" fill="#ea7c73" d="M 395.5,93.5 C 396.117,93.6107 396.617,93.944 397,94.5C 397.495,96.4727 397.662,98.4727 397.5,100.5C 396.388,98.4006 395.721,96.0673 395.5,93.5 Z"/></g>
<g><path style="opacity:1" fill="#ea6759" d="M 397.5,101.5 C 398.931,101.881 399.764,102.881 400,104.5C 400.497,106.81 400.663,109.143 400.5,111.5C 399.13,108.381 398.13,105.048 397.5,101.5 Z"/></g>
<g><path style="opacity:1" fill="#eb5547" d="M 424.5,99.5 C 425.768,101.905 426.435,104.572 426.5,107.5C 424.631,105.365 423.964,102.698 424.5,99.5 Z"/></g>
<g><path style="opacity:0.969" fill="#eb807a" d="M 427.5,111.5 C 428.924,113.515 429.59,115.848 429.5,118.5C 428.833,117.5 428.167,116.5 427.5,115.5C 427.5,114.167 427.5,112.833 427.5,111.5 Z"/></g>
<g><path style="opacity:0.4" fill="#a2a2a2" d="M 529.5,116.5 C 529.573,118.027 528.906,119.027 527.5,119.5C 527.427,117.973 528.094,116.973 529.5,116.5 Z"/></g>
<g><path style="opacity:1" fill="#ea6152" d="M 400.5,111.5 C 403.465,116.198 404.798,121.531 404.5,127.5C 402.251,122.503 400.917,117.17 400.5,111.5 Z"/></g>
<g><path style="opacity:0.169" fill="#cbe5fd" d="M 456.5,121.5 C 451.5,121.5 446.5,121.5 441.5,121.5C 441.5,122.5 441.5,123.5 441.5,124.5C 440.566,123.432 440.232,122.099 440.5,120.5C 446.026,120.179 451.36,120.512 456.5,121.5 Z"/></g>
<g><path style="opacity:0.698" fill="#7196ed" d="M 457.5,121.5 C 464.454,121.439 471.121,122.439 477.5,124.5C 470.593,124.229 463.926,123.229 457.5,121.5 Z"/></g>
<g><path style="opacity:0.486" fill="#9b9b9b" d="M 527.5,119.5 C 527.573,121.027 526.906,122.027 525.5,122.5C 525.427,120.973 526.094,119.973 527.5,119.5 Z"/></g>
<g><path style="opacity:1" fill="#0c59fa" d="M 456.5,121.5 C 456.833,121.5 457.167,121.5 457.5,121.5C 463.926,123.229 470.593,124.229 477.5,124.5C 479.292,124.366 480.958,124.699 482.5,125.5C 483.99,127.28 485.99,127.946 488.5,127.5C 488.833,127.5 489.167,127.5 489.5,127.5C 488.047,128.825 488.381,129.658 490.5,130C 493.168,130.567 495.834,131.067 498.5,131.5C 499.959,131.433 501.292,131.766 502.5,132.5C 504.348,135.931 507.348,137.597 511.5,137.5C 512.833,137.833 514.167,138.167 515.5,138.5C 511.746,144.342 507.746,150.009 503.5,155.5C 500.579,156.372 497.579,156.372 494.5,155.5C 494.586,154.504 494.252,153.671 493.5,153C 490.883,152.178 488.216,151.678 485.5,151.5C 485.167,151.5 484.833,151.5 484.5,151.5C 481.352,148.074 477.352,146.741 472.5,147.5C 470.189,145.932 467.522,145.098 464.5,145C 461.183,144.502 457.85,144.335 454.5,144.5C 452.708,143.691 450.708,143.191 448.5,143C 446.755,139.727 445.089,136.56 443.5,133.5C 443.5,133.167 443.5,132.833 443.5,132.5C 443.829,129.772 443.163,127.438 441.5,125.5C 441.5,125.167 441.5,124.833 441.5,124.5C 441.5,123.5 441.5,122.5 441.5,121.5C 446.5,121.5 451.5,121.5 456.5,121.5 Z"/></g>
<g><path style="opacity:0.439" fill="#9c9c9c" d="M 525.5,122.5 C 525.573,124.027 524.906,125.027 523.5,125.5C 523.427,123.973 524.094,122.973 525.5,122.5 Z"/></g>
<g><path style="opacity:0.953" fill="#8aa3e6" d="M 482.5,125.5 C 484.786,125.595 486.786,126.262 488.5,127.5C 485.99,127.946 483.99,127.28 482.5,125.5 Z"/></g>
<g><path style="opacity:1" fill="#ef6d5e" d="M 404.5,127.5 C 406.369,129.635 407.036,132.302 406.5,135.5C 405.232,133.095 404.565,130.428 404.5,127.5 Z"/></g>
<g><path style="opacity:0.961" fill="#86a3e7" d="M 441.5,125.5 C 443.163,127.438 443.829,129.772 443.5,132.5C 442.388,130.401 441.721,128.067 441.5,125.5 Z"/></g>
<g><path style="opacity:1" fill="#708ce8" d="M 489.5,127.5 C 492.744,128.463 495.744,129.796 498.5,131.5C 495.834,131.067 493.168,130.567 490.5,130C 488.381,129.658 488.047,128.825 489.5,127.5 Z"/></g>
<g><path style="opacity:0.227" fill="#c7dbf4" d="M 393.5,133.5 C 394.947,132.115 395.947,132.448 396.5,134.5C 396.167,134.5 395.833,134.5 395.5,134.5C 395.158,133.662 394.492,133.328 393.5,133.5 Z"/></g>
<g><path style="opacity:1" fill="#4974d8" d="M 393.5,133.5 C 394.492,133.328 395.158,133.662 395.5,134.5C 393.565,135.15 391.565,135.483 389.5,135.5C 390.514,134.326 391.847,133.66 393.5,133.5 Z"/></g>
<g><path style="opacity:1" fill="#6886df" d="M 502.5,132.5 C 505.696,133.929 508.696,135.595 511.5,137.5C 507.348,137.597 504.348,135.931 502.5,132.5 Z"/></g>
<g><path style="opacity:1" fill="#ef4f3c" d="M 406.5,135.5 C 407.482,136.141 408.482,136.807 409.5,137.5C 410.492,141.783 410.826,146.116 410.5,150.5C 408.721,145.722 407.387,140.722 406.5,135.5 Z"/></g>
<g><path style="opacity:0.824" fill="#93b5ef" d="M 385.5,137.5 C 385.027,138.906 384.027,139.573 382.5,139.5C 382.973,138.094 383.973,137.427 385.5,137.5 Z"/></g>
<g><path style="opacity:1" fill="#4b70e8" d="M 389.5,135.5 C 387.706,139.768 384.373,141.768 379.5,141.5C 379.973,140.094 380.973,139.427 382.5,139.5C 384.027,139.573 385.027,138.906 385.5,137.5C 386.514,136.326 387.847,135.66 389.5,135.5 Z"/></g>
<g><path style="opacity:1" fill="#0a59fb" d="M 395.5,134.5 C 395.999,138.49 396.499,142.49 397,146.5C 397.708,147.381 398.542,148.047 399.5,148.5C 399.5,151.167 399.5,153.833 399.5,156.5C 397.821,156.285 396.821,156.952 396.5,158.5C 392.628,160.19 388.628,161.523 384.5,162.5C 384.5,163.833 384.5,165.167 384.5,166.5C 383.167,166.5 381.833,166.5 380.5,166.5C 380.5,167.5 380.5,168.5 380.5,169.5C 376.719,169.296 374.386,170.963 373.5,174.5C 372.5,174.5 371.5,174.5 370.5,174.5C 370.5,175.833 370.5,177.167 370.5,178.5C 368.774,178.185 367.107,178.019 365.5,178C 368.288,180.374 367.954,181.707 364.5,182C 365.711,182.893 365.711,183.726 364.5,184.5C 363.808,183.975 363.308,183.308 363,182.5C 362.667,182.833 362.333,183.167 362,183.5C 362.135,185.425 362.302,187.425 362.5,189.5C 362.672,190.492 362.338,191.158 361.5,191.5C 359.088,191.244 357.421,192.244 356.5,194.5C 355.526,196.743 355.192,199.076 355.5,201.5C 353.025,202.687 352.025,204.687 352.5,207.5C 352.34,209.153 351.674,210.486 350.5,211.5C 349.778,211.918 349.278,212.584 349,213.5C 348.167,198.822 348.334,184.155 349.5,169.5C 350.705,168.423 351.372,167.09 351.5,165.5C 351.5,164.167 352.167,163.5 353.5,163.5C 355.914,162.089 357.581,160.089 358.5,157.5C 361.089,156.581 363.089,154.914 364.5,152.5C 366.749,151.92 368.415,150.587 369.5,148.5C 370.262,146.738 371.596,145.738 373.5,145.5C 375.966,144.702 377.966,143.369 379.5,141.5C 384.373,141.768 387.706,139.768 389.5,135.5C 391.565,135.483 393.565,135.15 395.5,134.5 Z"/></g>
<g><path style="opacity:1" fill="#ec3b2b" d="M 427.5,115.5 C 428.167,116.5 428.833,117.5 429.5,118.5C 432.435,127.573 434.768,136.907 436.5,146.5C 434.952,146.179 434.285,145.179 434.5,143.5C 433.448,143.649 432.448,143.483 431.5,143C 432.116,141.6 432.449,140.1 432.5,138.5C 431.284,134.916 430.617,131.249 430.5,127.5C 429.5,127.5 428.5,127.5 427.5,127.5C 428.833,123.5 428.833,119.5 427.5,115.5 Z"/></g>
<g><path style="opacity:1" fill="#426bd6" d="M 443.5,133.5 C 445.089,136.56 446.755,139.727 448.5,143C 450.708,143.191 452.708,143.691 454.5,144.5C 451.833,144.5 449.167,144.5 446.5,144.5C 445.055,141.063 444.055,137.397 443.5,133.5 Z"/></g>
<g><path style="opacity:0.831" fill="#7a93ec" d="M 379.5,141.5 C 377.966,143.369 375.966,144.702 373.5,145.5C 374.802,143.178 376.802,141.845 379.5,141.5 Z"/></g>
<g><path style="opacity:1" fill="#5578e3" d="M 395.5,134.5 C 395.833,134.5 396.167,134.5 396.5,134.5C 397.815,139.095 398.815,143.761 399.5,148.5C 398.542,148.047 397.708,147.381 397,146.5C 396.499,142.49 395.999,138.49 395.5,134.5 Z"/></g>
<g><path style="opacity:1" fill="#839dec" d="M 446.5,144.5 C 449.167,144.5 451.833,144.5 454.5,144.5C 457.85,144.335 461.183,144.502 464.5,145C 467.522,145.098 470.189,145.932 472.5,147.5C 463.722,146.25 455.055,145.25 446.5,144.5 Z"/></g>
<g><path style="opacity:1" fill="#799de7" d="M 472.5,147.5 C 477.352,146.741 481.352,148.074 484.5,151.5C 480.341,150.336 476.341,149.003 472.5,147.5 Z"/></g>
<g><path style="opacity:0.733" fill="#87aaec" d="M 369.5,148.5 C 368.415,150.587 366.749,151.92 364.5,152.5C 365.585,150.413 367.251,149.08 369.5,148.5 Z"/></g>
<g><path style="opacity:1" fill="#3a65ed" d="M 522.5,143.5 C 528.129,147.794 533.463,152.461 538.5,157.5C 536.315,157.112 534.482,156.112 533,154.5C 532.127,154.735 531.293,155.069 530.5,155.5C 529.548,153.955 529.215,152.288 529.5,150.5C 526.708,150.452 524.875,151.785 524,154.5C 523.788,152.22 522.955,150.22 521.5,148.5C 522.456,146.3 521.79,145.967 519.5,147.5C 519.738,145.596 520.738,144.262 522.5,143.5 Z"/></g>
<g><path style="opacity:0.737" fill="#f18881" d="M 436.5,146.5 C 437.924,148.515 438.59,150.848 438.5,153.5C 437.076,151.485 436.41,149.152 436.5,146.5 Z"/></g>
<g><path style="opacity:1" fill="#5f7ee6" d="M 485.5,151.5 C 488.216,151.678 490.883,152.178 493.5,153C 494.252,153.671 494.586,154.504 494.5,155.5C 491.256,154.537 488.256,153.204 485.5,151.5 Z"/></g>
<g><path style="opacity:1" fill="#6684e1" d="M 399.5,148.5 C 400.933,150.914 401.433,153.581 401,156.5C 399.67,157.582 398.17,158.249 396.5,158.5C 396.821,156.952 397.821,156.285 399.5,156.5C 399.5,153.833 399.5,151.167 399.5,148.5 Z"/></g>
<g><path style="opacity:0.839" fill="#8eaeec" d="M 364.5,152.5 C 363.089,154.914 361.089,156.581 358.5,157.5C 359.911,155.086 361.911,153.419 364.5,152.5 Z"/></g>
<g><path style="opacity:1" fill="#e2695b" d="M 411.5,155.5 C 413.344,157.279 414.01,159.612 413.5,162.5C 412.388,160.401 411.721,158.067 411.5,155.5 Z"/></g>
<g><path style="opacity:1" fill="#5470d8" d="M 494.5,155.5 C 497.579,156.372 500.579,156.372 503.5,155.5C 503.267,157.062 502.6,158.395 501.5,159.5C 501.5,160.167 501.167,160.5 500.5,160.5C 498.941,158.376 496.941,156.709 494.5,155.5 Z"/></g>
<g><path style="opacity:1" fill="#0959fb" d="M 538.5,157.5 C 538.731,160.063 540.065,161.73 542.5,162.5C 544.5,163.833 546.167,165.5 547.5,167.5C 547.427,169.027 548.094,170.027 549.5,170.5C 549.738,172.404 550.738,173.738 552.5,174.5C 553.906,174.973 554.573,175.973 554.5,177.5C 554.449,179.57 555.115,181.403 556.5,183C 555.852,184.44 555.519,185.94 555.5,187.5C 556.873,187.343 558.207,187.51 559.5,188C 560.078,189.417 561.078,190.25 562.5,190.5C 564.341,192.849 565.674,195.515 566.5,198.5C 567.378,205.009 569.378,211.009 572.5,216.5C 572.271,221.01 572.938,225.343 574.5,229.5C 574.667,242.504 574.5,255.504 574,268.5C 572.608,271.278 572.108,274.278 572.5,277.5C 571.701,280.43 571.368,283.43 571.5,286.5C 571.567,287.959 571.234,289.292 570.5,290.5C 567.979,292.03 566.979,294.364 567.5,297.5C 567.5,297.833 567.5,298.167 567.5,298.5C 566.504,298.414 565.671,298.748 565,299.5C 563.617,302.368 562.784,305.368 562.5,308.5C 562.672,309.492 562.338,310.158 561.5,310.5C 558.916,311.048 557.916,312.715 558.5,315.5C 555.774,315.264 553.441,316.097 551.5,318C 553.037,319.11 553.703,320.61 553.5,322.5C 551.876,322.36 550.71,323.027 550,324.5C 549.085,323.672 548.419,322.672 548,321.5C 545.868,325.208 545.035,329.208 545.5,333.5C 544.833,334.833 543.833,335.833 542.5,336.5C 541.5,336.5 540.5,336.5 539.5,336.5C 538.975,337.728 537.642,338.562 535.5,339C 535.833,339.333 536.167,339.667 536.5,340C 533.756,341.324 532.423,343.491 532.5,346.5C 529.031,345.887 527.031,347.221 526.5,350.5C 525.5,350.5 524.5,350.5 523.5,350.5C 523.5,351.5 523.5,352.5 523.5,353.5C 521.5,353.5 519.5,353.5 517.5,353.5C 517.634,355.292 517.301,356.958 516.5,358.5C 515.101,359.89 513.434,360.89 511.5,361.5C 508.996,360.235 506.496,359.901 504,360.5C 502.851,357.607 502.351,354.607 502.5,351.5C 501.5,351.5 500.5,351.5 499.5,351.5C 499.5,350.833 499.5,350.167 499.5,349.5C 499.337,347.143 499.503,344.81 500,342.5C 501.417,341.922 502.25,340.922 502.5,339.5C 508.063,338.532 512.396,335.699 515.5,331C 516.793,330.51 518.127,330.343 519.5,330.5C 519.5,329.167 519.5,327.833 519.5,326.5C 523.439,323.738 527.272,320.738 531,317.5C 531.49,316.207 531.657,314.873 531.5,313.5C 533.262,312.738 534.262,311.404 534.5,309.5C 537.325,308.522 538.658,306.522 538.5,303.5C 540.969,302.393 541.969,300.393 541.5,297.5C 543.969,296.393 544.969,294.393 544.5,291.5C 547.431,288.987 548.765,285.653 548.5,281.5C 549.924,279.485 550.59,277.152 550.5,274.5C 550.448,272.097 550.781,269.764 551.5,267.5C 552.15,267.196 552.817,266.863 553.5,266.5C 554.666,255.515 554.832,244.515 554,233.5C 553.115,230.048 552.282,226.714 551.5,223.5C 551.167,222.5 550.5,221.833 549.5,221.5C 549.5,221.167 549.5,220.833 549.5,220.5C 549.88,218.302 549.213,216.635 547.5,215.5C 547.5,215.167 547.5,214.833 547.5,214.5C 547.453,211.432 546.953,208.432 546,205.5C 545.124,203.365 543.624,202.031 541.5,201.5C 539.583,198.669 537.917,195.669 536.5,192.5C 536.817,189.454 535.484,187.787 532.5,187.5C 529.833,184.167 527.167,180.833 524.5,177.5C 523.238,174.874 521.904,172.207 520.5,169.5C 519.408,168.169 518.074,167.336 516.5,167C 516.833,166.667 517.167,166.333 517.5,166C 515.597,164.553 513.93,162.886 512.5,161C 514.355,158.421 515.688,155.588 516.5,152.5C 517.873,152.657 519.207,152.49 520.5,152C 519.62,150.644 519.286,149.144 519.5,147.5C 521.79,145.967 522.456,146.3 521.5,148.5C 522.955,150.22 523.788,152.22 524,154.5C 524.875,151.785 526.708,150.452 529.5,150.5C 529.215,152.288 529.548,153.955 530.5,155.5C 531.293,155.069 532.127,154.735 533,154.5C 534.482,156.112 536.315,157.112 538.5,157.5 Z"/></g>
<g><path style="opacity:1" fill="#070707" d="M 507.5,165.5 C 505.695,169.773 503.361,173.773 500.5,177.5C 502.483,179.984 504.65,182.317 507,184.5C 507.667,185.167 507.667,185.833 507,186.5C 498.29,194.212 489.29,201.545 480,208.5C 473.823,218.195 467.656,227.862 461.5,237.5C 457.717,239.705 455.383,243.039 454.5,247.5C 452.178,248.802 450.845,250.802 450.5,253.5C 446.167,253.5 441.833,253.5 437.5,253.5C 424.5,253.5 411.5,253.5 398.5,253.5C 398.232,255.099 398.566,256.432 399.5,257.5C 399.5,258.833 399.5,260.167 399.5,261.5C 399.171,264.228 399.837,266.562 401.5,268.5C 405.867,280.858 413.534,290.525 424.5,297.5C 424.821,299.048 425.821,299.715 427.5,299.5C 430.85,300.503 434.183,301.503 437.5,302.5C 443.653,303.653 449.986,303.82 456.5,303C 457.416,302.722 458.082,302.222 458.5,301.5C 462.826,301.147 466.493,299.48 469.5,296.5C 470.694,295.728 471.694,294.728 472.5,293.5C 473.71,293.068 474.71,292.401 475.5,291.5C 476.609,287.87 478.942,286.037 482.5,286C 491.377,293.049 500.377,299.883 509.5,306.5C 509.557,307.609 509.89,308.609 510.5,309.5C 504.273,319.381 495.607,326.381 484.5,330.5C 483.005,330.989 481.671,331.655 480.5,332.5C 477.848,332.41 475.515,333.076 473.5,334.5C 468.609,335.01 463.942,336.01 459.5,337.5C 459.167,337.5 458.833,337.5 458.5,337.5C 448.038,338.639 437.704,337.973 427.5,335.5C 425.485,334.076 423.152,333.41 420.5,333.5C 418.485,332.076 416.152,331.41 413.5,331.5C 409.407,330.618 405.74,328.951 402.5,326.5C 402.027,325.094 401.027,324.427 399.5,324.5C 398.508,324.672 397.842,324.338 397.5,323.5C 397.027,322.094 396.027,321.427 394.5,321.5C 393.738,319.738 392.404,318.738 390.5,318.5C 389.5,318.167 388.833,317.5 388.5,316.5C 387.089,314.086 385.089,312.419 382.5,311.5C 369.214,297.582 361.88,280.915 360.5,261.5C 360.5,258.833 360.5,256.167 360.5,253.5C 351.983,253.174 343.65,253.507 335.5,254.5C 335.5,280.833 335.5,307.167 335.5,333.5C 323.167,333.5 310.833,333.5 298.5,333.5C 298.5,306.833 298.5,280.167 298.5,253.5C 285.989,253.171 273.655,253.505 261.5,254.5C 253.615,261.603 244.282,265.77 233.5,267C 217.869,268.362 202.202,268.862 186.5,268.5C 186.5,290.167 186.5,311.833 186.5,333.5C 174.167,333.5 161.833,333.5 149.5,333.5C 149.5,306.833 149.5,280.167 149.5,253.5C 115.329,253.168 81.3292,253.502 47.5,254.5C 49.2064,261.267 52.873,266.6 58.5,270.5C 58.8212,272.048 59.8212,272.715 61.5,272.5C 71.1571,275.679 80.4905,275.012 89.5,270.5C 91.0269,270.573 92.0269,269.906 92.5,268.5C 93.8333,266.5 95.5,264.833 97.5,263.5C 99.0992,262.438 100.766,262.438 102.5,263.5C 110.239,268.399 117.572,273.899 124.5,280C 108.093,298.806 87.4265,306.139 62.5,302C 52.8164,300.724 44.1497,297.224 36.5,291.5C 36.0269,290.094 35.0269,289.427 33.5,289.5C 32.5,289.167 31.8333,288.5 31.5,287.5C 31.0269,286.094 30.0269,285.427 28.5,285.5C 12.2554,268.192 7.0887,247.858 13,224.5C 14.395,219.382 16.5617,214.715 19.5,210.5C 20.9063,210.027 21.573,209.027 21.5,207.5C 23.2624,206.738 24.2624,205.404 24.5,203.5C 24.5,202.833 24.8333,202.5 25.5,202.5C 27.8333,200.833 29.8333,198.833 31.5,196.5C 31.5,195.833 31.8333,195.5 32.5,195.5C 34.0269,195.573 35.0269,194.906 35.5,193.5C 38.1612,190.498 41.4945,188.498 45.5,187.5C 46.4959,187.414 47.3292,187.748 48,188.5C 49.9317,186.7 52.0984,185.367 54.5,184.5C 57.1522,184.59 59.4855,183.924 61.5,182.5C 76.9586,179.524 91.6253,181.691 105.5,189C 109.668,192.002 113.335,195.502 116.5,199.5C 116.427,201.027 117.094,202.027 118.5,202.5C 118.427,204.027 119.094,205.027 120.5,205.5C 122.771,207.612 124.104,210.279 124.5,213.5C 124.12,215.698 124.787,217.365 126.5,218.5C 129.071,226.934 130.071,235.6 129.5,244.5C 135.979,245.491 142.646,245.824 149.5,245.5C 149.5,218.833 149.5,192.167 149.5,165.5C 175.685,164.116 202.018,164.282 228.5,166C 243.245,167.042 255.579,172.876 265.5,183.5C 265.427,185.027 266.094,186.027 267.5,186.5C 267.427,188.027 268.094,189.027 269.5,189.5C 270.892,191.273 272.059,193.273 273,195.5C 277.732,211.574 276.898,227.241 270.5,242.5C 269.733,243.172 269.066,244.005 268.5,245C 278.494,245.5 288.494,245.666 298.5,245.5C 298.5,218.833 298.5,192.167 298.5,165.5C 310.655,164.505 322.989,164.171 335.5,164.5C 335.5,191.167 335.5,217.833 335.5,244.5C 343.65,245.493 351.983,245.826 360.5,245.5C 360.5,242.833 360.5,240.167 360.5,237.5C 360.344,233.236 361.011,229.236 362.5,225.5C 363.924,223.485 364.59,221.152 364.5,218.5C 365.766,212.64 368.1,207.307 371.5,202.5C 372.906,202.027 373.573,201.027 373.5,199.5C 374.906,199.027 375.573,198.027 375.5,196.5C 377.793,192.242 380.793,188.576 384.5,185.5C 386.404,185.262 387.738,184.262 388.5,182.5C 390.637,179.027 393.637,176.694 397.5,175.5C 399.848,175.408 401.514,174.408 402.5,172.5C 405.74,170.049 409.407,168.382 413.5,167.5C 420.13,166.237 426.797,165.071 433.5,164C 434.416,163.722 435.082,163.222 435.5,162.5C 437.292,162.634 438.958,162.301 440.5,161.5C 458.756,159.251 475.923,162.585 492,171.5C 494.06,169.718 495.893,167.718 497.5,165.5C 498.906,165.027 499.573,164.027 499.5,162.5C 499.328,161.508 499.662,160.842 500.5,160.5C 501.167,160.5 501.5,160.167 501.5,159.5C 503.124,159.64 504.29,158.973 505,157.5C 506,158.167 507,158.833 508,159.5C 507.865,161.425 507.698,163.425 507.5,165.5 Z M 455.5,196.5 C 460.06,197.298 464.394,198.798 468.5,201C 470.439,201.908 471.439,203.408 471.5,205.5C 470.094,205.973 469.427,206.973 469.5,208.5C 468.094,208.973 467.427,209.973 467.5,211.5C 466.094,211.973 465.427,212.973 465.5,214.5C 464.662,214.842 464.328,215.508 464.5,216.5C 463.094,216.973 462.427,217.973 462.5,219.5C 461.094,219.973 460.427,220.973 460.5,222.5C 459.094,222.973 458.427,223.973 458.5,225.5C 457.833,224.833 457.167,224.167 456.5,223.5C 456.435,220.572 455.768,217.905 454.5,215.5C 453.481,209.426 452.148,203.426 450.5,197.5C 451.919,196.549 453.585,196.216 455.5,196.5 Z M 217.5,197.5 C 219.302,198.458 221.302,199.125 223.5,199.5C 224.708,200.234 226.041,200.567 227.5,200.5C 227.973,201.906 228.973,202.573 230.5,202.5C 236.786,209.59 238.12,217.59 234.5,226.5C 233.094,226.973 232.427,227.973 232.5,229.5C 231.833,229.5 231.5,229.833 231.5,230.5C 229.973,230.427 228.973,231.094 228.5,232.5C 224.383,234.371 220.049,235.538 215.5,236C 205.839,236.5 196.172,236.666 186.5,236.5C 186.5,223.5 186.5,210.5 186.5,197.5C 196.833,197.5 207.167,197.5 217.5,197.5 Z M 422.5,202.5 C 423.167,203.5 423.833,204.5 424.5,205.5C 425.722,212.061 427.389,218.394 429.5,224.5C 430.01,227.539 430.677,230.539 431.5,233.5C 431.927,236.01 432.593,238.343 433.5,240.5C 433.433,241.959 433.766,243.292 434.5,244.5C 422.833,244.5 411.167,244.5 399.5,244.5C 399.5,242.5 399.5,240.5 399.5,238.5C 402.395,223.306 410.061,211.306 422.5,202.5 Z M 82.5,209.5 C 82.9731,210.906 83.9731,211.573 85.5,211.5C 90.4596,216.026 93.1263,221.693 93.5,228.5C 77.7969,229.151 62.4636,228.484 47.5,226.5C 50.8645,214.467 58.8645,208.133 71.5,207.5C 75.2564,207.754 78.9231,208.421 82.5,209.5 Z"/></g>
<g><path style="opacity:0.706" fill="#9fb8f1" d="M 358.5,157.5 C 357.581,160.089 355.914,162.089 353.5,163.5C 354.419,160.911 356.086,158.911 358.5,157.5 Z"/></g>
<g><path style="opacity:0.675" fill="#93a7ec" d="M 538.5,157.5 C 540.587,158.585 541.92,160.251 542.5,162.5C 540.065,161.73 538.731,160.063 538.5,157.5 Z"/></g>
<g><path style="opacity:1" fill="#a62a20" d="M 438.5,153.5 C 439.768,155.905 440.435,158.572 440.5,161.5C 438.958,162.301 437.292,162.634 435.5,162.5C 434.167,162.5 432.833,162.5 431.5,162.5C 433.607,161.532 435.941,161.198 438.5,161.5C 438.5,158.833 438.5,156.167 438.5,153.5 Z"/></g>
<g><path style="opacity:1" fill="#6982ea" d="M 396.5,158.5 C 392.795,161.526 388.795,164.192 384.5,166.5C 384.5,165.167 384.5,163.833 384.5,162.5C 388.628,161.523 392.628,160.19 396.5,158.5 Z"/></g>
<g><path style="opacity:1" fill="#4f1c1b" d="M 431.5,162.5 C 432.833,162.5 434.167,162.5 435.5,162.5C 435.082,163.222 434.416,163.722 433.5,164C 426.797,165.071 420.13,166.237 413.5,167.5C 413.5,166.167 413.5,164.833 413.5,163.5C 414.404,164.209 414.737,165.209 414.5,166.5C 420.191,164.793 425.858,163.459 431.5,162.5 Z"/></g>
<g><path style="opacity:0.616" fill="#83817f" d="M 499.5,162.5 C 499.573,164.027 498.906,165.027 497.5,165.5C 497.427,163.973 498.094,162.973 499.5,162.5 Z"/></g>
<g><path style="opacity:1" fill="#637fe4" d="M 508.5,164.5 C 508.5,163.833 508.833,163.5 509.5,163.5C 513.257,163.874 515.59,165.874 516.5,169.5C 513.851,167.86 511.184,166.193 508.5,164.5 Z"/></g>
<g><path style="opacity:1" fill="#275adf" d="M 519.5,147.5 C 519.286,149.144 519.62,150.644 520.5,152C 519.207,152.49 517.873,152.657 516.5,152.5C 515.688,155.588 514.355,158.421 512.5,161C 513.93,162.886 515.597,164.553 517.5,166C 517.167,166.333 516.833,166.667 516.5,167C 518.074,167.336 519.408,168.169 520.5,169.5C 521.904,172.207 523.238,174.874 524.5,177.5C 521.5,175.167 518.833,172.5 516.5,169.5C 515.59,165.874 513.257,163.874 509.5,163.5C 511.343,157.128 514.677,151.795 519.5,147.5 Z"/></g>
<g><path style="opacity:0.112" fill="#efefef" d="M 149.5,165.5 C 149.5,192.167 149.5,218.833 149.5,245.5C 142.646,245.824 135.979,245.491 129.5,244.5C 135.833,244.5 142.167,244.5 148.5,244.5C 148.169,217.995 148.502,191.661 149.5,165.5 Z"/></g>
<g><path style="opacity:1" fill="#7890ed" d="M 384.5,166.5 C 383.738,168.262 382.404,169.262 380.5,169.5C 380.5,168.5 380.5,167.5 380.5,166.5C 381.833,166.5 383.167,166.5 384.5,166.5 Z"/></g>
<g><path style="opacity:0.827" fill="#96aaea" d="M 547.5,167.5 C 548.906,167.973 549.573,168.973 549.5,170.5C 548.094,170.027 547.427,169.027 547.5,167.5 Z"/></g>
<g><path style="opacity:0.808" fill="#7c9fea" d="M 549.5,170.5 C 551.262,171.262 552.262,172.596 552.5,174.5C 550.738,173.738 549.738,172.404 549.5,170.5 Z"/></g>
<g><path style="opacity:0.835" fill="#666868" d="M 402.5,172.5 C 401.514,174.408 399.848,175.408 397.5,175.5C 398.659,173.75 400.326,172.75 402.5,172.5 Z"/></g>
<g><path style="opacity:0.924" fill="#487ae3" d="M 351.5,165.5 C 351.372,167.09 350.705,168.423 349.5,169.5C 348.334,184.155 348.167,198.822 349,213.5C 349.278,212.584 349.778,211.918 350.5,211.5C 349.978,214.568 349.145,217.568 348,220.5C 347.333,203.167 347.333,185.833 348,168.5C 349.039,167.29 350.206,166.29 351.5,165.5 Z"/></g>
<g><path style="opacity:1" fill="#5878ed" d="M 380.5,169.5 C 374.101,175.894 368.101,182.561 362.5,189.5C 362.302,187.425 362.135,185.425 362,183.5C 362.333,183.167 362.667,182.833 363,182.5C 363.308,183.308 363.808,183.975 364.5,184.5C 365.711,183.726 365.711,182.893 364.5,182C 367.954,181.707 368.288,180.374 365.5,178C 367.107,178.019 368.774,178.185 370.5,178.5C 370.5,177.167 370.5,175.833 370.5,174.5C 371.5,174.5 372.5,174.5 373.5,174.5C 374.386,170.963 376.719,169.296 380.5,169.5 Z"/></g>
<g><path style="opacity:0.945" fill="#6e6e6e" d="M 61.5,182.5 C 59.4855,183.924 57.1522,184.59 54.5,184.5C 56.5145,183.076 58.8478,182.41 61.5,182.5 Z"/></g>
<g><path style="opacity:0.722" fill="#7f7f7f" d="M 388.5,182.5 C 387.738,184.262 386.404,185.262 384.5,185.5C 385.262,183.738 386.596,182.738 388.5,182.5 Z"/></g>
<g><path style="opacity:0.733" fill="#969696" d="M 265.5,183.5 C 266.906,183.973 267.573,184.973 267.5,186.5C 266.094,186.027 265.427,185.027 265.5,183.5 Z"/></g>
<g><path style="opacity:1" fill="#3d68e8" d="M 554.5,177.5 C 556.326,179.147 557.66,181.147 558.5,183.5C 558.427,185.027 559.094,186.027 560.5,186.5C 561.674,187.514 562.34,188.847 562.5,190.5C 561.078,190.25 560.078,189.417 559.5,188C 558.207,187.51 556.873,187.343 555.5,187.5C 555.519,185.94 555.852,184.44 556.5,183C 555.115,181.403 554.449,179.57 554.5,177.5 Z"/></g>
<g><path style="opacity:1" fill="#555555" d="M 54.5,184.5 C 52.0984,185.367 49.9317,186.7 48,188.5C 47.3292,187.748 46.4959,187.414 45.5,187.5C 48.0836,185.528 51.0836,184.528 54.5,184.5 Z"/></g>
<g><path style="opacity:0.533" fill="#9ab6f6" d="M 558.5,183.5 C 559.906,183.973 560.573,184.973 560.5,186.5C 559.094,186.027 558.427,185.027 558.5,183.5 Z"/></g>
<g><path style="opacity:0.525" fill="#888888" d="M 267.5,186.5 C 268.906,186.973 269.573,187.973 269.5,189.5C 268.094,189.027 267.427,188.027 267.5,186.5 Z"/></g>
<g><path style="opacity:1" fill="#617fe4" d="M 532.5,187.5 C 535.484,187.787 536.817,189.454 536.5,192.5C 534.937,191.055 533.604,189.389 532.5,187.5 Z"/></g>
<g><path style="opacity:0.788" fill="#848484" d="M 35.5,193.5 C 35.0269,194.906 34.0269,195.573 32.5,195.5C 32.9731,194.094 33.9731,193.427 35.5,193.5 Z"/></g>
<g><path style="opacity:1" fill="#6983ee" d="M 361.5,191.5 C 359.485,194.869 357.485,198.202 355.5,201.5C 355.192,199.076 355.526,196.743 356.5,194.5C 357.421,192.244 359.088,191.244 361.5,191.5 Z"/></g>
<g><path style="opacity:0.024" fill="#e4dcdd" d="M 449.5,195.5 C 451.735,195.205 453.735,195.539 455.5,196.5C 453.585,196.216 451.919,196.549 450.5,197.5C 450.167,197.5 449.833,197.5 449.5,197.5C 449.5,196.833 449.5,196.167 449.5,195.5 Z"/></g>
<g><path style="opacity:1" fill="#b11416" d="M 449.5,195.5 C 449.5,196.167 449.5,196.833 449.5,197.5C 444.22,196.339 438.886,196.339 433.5,197.5C 434.263,196.732 435.263,196.232 436.5,196C 440.821,195.501 445.154,195.334 449.5,195.5 Z"/></g>
<g><path style="opacity:0.922" fill="#808080" d="M 217.5,197.5 C 220.01,197.054 222.01,197.72 223.5,199.5C 221.302,199.125 219.302,198.458 217.5,197.5 Z"/></g>
<g><path style="opacity:1" fill="#f90403" d="M 449.5,197.5 C 450.611,202.388 450.611,207.221 449.5,212C 451.065,213.412 452.731,214.579 454.5,215.5C 455.768,217.905 456.435,220.572 456.5,223.5C 456.5,224.833 456.5,226.167 456.5,227.5C 453.578,233.686 449.911,239.352 445.5,244.5C 442.167,244.5 438.833,244.5 435.5,244.5C 434.881,235.716 432.881,227.383 429.5,219.5C 428.907,214.341 427.24,209.674 424.5,205.5C 424.768,203.901 424.434,202.568 423.5,201.5C 425.382,200.249 427.382,199.082 429.5,198C 430.793,197.51 432.127,197.343 433.5,197.5C 438.886,196.339 444.22,196.339 449.5,197.5 Z"/></g>
<g><path style="opacity:0.612" fill="#7f7f7f" d="M 375.5,196.5 C 375.573,198.027 374.906,199.027 373.5,199.5C 373.427,197.973 374.094,196.973 375.5,196.5 Z"/></g>
<g><path style="opacity:0.714" fill="#949494" d="M 31.5,196.5 C 29.8333,198.833 27.8333,200.833 25.5,202.5C 26.5,199.5 28.5,197.5 31.5,196.5 Z"/></g>
<g><path style="opacity:0.471" fill="#9f9f9f" d="M 116.5,199.5 C 117.906,199.973 118.573,200.973 118.5,202.5C 117.094,202.027 116.427,201.027 116.5,199.5 Z"/></g>
<g><path style="opacity:0.6" fill="#838383" d="M 227.5,200.5 C 229.027,200.427 230.027,201.094 230.5,202.5C 228.973,202.573 227.973,201.906 227.5,200.5 Z"/></g>
<g><path style="opacity:0.455" fill="#919191" d="M 373.5,199.5 C 373.573,201.027 372.906,202.027 371.5,202.5C 371.427,200.973 372.094,199.973 373.5,199.5 Z"/></g>
<g><path style="opacity:0.933" fill="#e99494" d="M 422.5,202.5 C 422.5,201.833 422.833,201.5 423.5,201.5C 424.434,202.568 424.768,203.901 424.5,205.5C 423.833,204.5 423.167,203.5 422.5,202.5 Z"/></g>
<g><path style="opacity:0.894" fill="#797979" d="M 24.5,203.5 C 24.2624,205.404 23.2624,206.738 21.5,207.5C 21.7376,205.596 22.7376,204.262 24.5,203.5 Z"/></g>
<g><path style="opacity:0.475" fill="#939393" d="M 118.5,202.5 C 119.906,202.973 120.573,203.973 120.5,205.5C 119.094,205.027 118.427,204.027 118.5,202.5 Z"/></g>
<g><path style="opacity:0.984" fill="#8ca2e8" d="M 355.5,201.5 C 355.008,203.819 354.008,205.819 352.5,207.5C 352.025,204.687 353.025,202.687 355.5,201.5 Z"/></g>
<g><path style="opacity:1" fill="#6784e7" d="M 541.5,201.5 C 543.624,202.031 545.124,203.365 546,205.5C 546.953,208.432 547.453,211.432 547.5,214.5C 545.264,210.355 543.264,206.022 541.5,201.5 Z"/></g>
<g><path style="opacity:1" fill="#627fe7" d="M 566.5,198.5 C 569.473,204.085 571.473,210.085 572.5,216.5C 569.378,211.009 567.378,205.009 566.5,198.5 Z"/></g>
<g><path style="opacity:0.533" fill="#8a8a8a" d="M 471.5,205.5 C 471.573,207.027 470.906,208.027 469.5,208.5C 469.427,206.973 470.094,205.973 471.5,205.5 Z"/></g>
<g><path style="opacity:0.553" fill="#838383" d="M 21.5,207.5 C 21.573,209.027 20.9063,210.027 19.5,210.5C 19.427,208.973 20.0937,207.973 21.5,207.5 Z"/></g>
<g><path style="opacity:0.086" fill="#f4f4f4" d="M 298.5,165.5 C 298.5,192.167 298.5,218.833 298.5,245.5C 288.494,245.666 278.494,245.5 268.5,245C 269.066,244.005 269.733,243.172 270.5,242.5C 279.105,244.471 288.105,245.138 297.5,244.5C 297.169,217.995 297.502,191.661 298.5,165.5 Z"/></g>
<g><path style="opacity:0.549" fill="#878787" d="M 82.5,209.5 C 84.0269,209.427 85.0269,210.094 85.5,211.5C 83.9731,211.573 82.9731,210.906 82.5,209.5 Z"/></g>
<g><path style="opacity:0.486" fill="#949494" d="M 469.5,208.5 C 469.573,210.027 468.906,211.027 467.5,211.5C 467.427,209.973 468.094,208.973 469.5,208.5 Z"/></g>
<g><path style="opacity:1" fill="#ea3a2a" d="M 449.5,197.5 C 449.833,197.5 450.167,197.5 450.5,197.5C 452.148,203.426 453.481,209.426 454.5,215.5C 452.731,214.579 451.065,213.412 449.5,212C 450.611,207.221 450.611,202.388 449.5,197.5 Z"/></g>
<g><path style="opacity:1" fill="#e85c50" d="M 424.5,205.5 C 427.24,209.674 428.907,214.341 429.5,219.5C 429.5,221.167 429.5,222.833 429.5,224.5C 427.389,218.394 425.722,212.061 424.5,205.5 Z"/></g>
<g><path style="opacity:0.443" fill="#999999" d="M 467.5,211.5 C 467.573,213.027 466.906,214.027 465.5,214.5C 465.427,212.973 466.094,211.973 467.5,211.5 Z"/></g>
<g><path style="opacity:0.976" fill="#797979" d="M 124.5,213.5 C 125.537,214.93 126.204,216.597 126.5,218.5C 124.787,217.365 124.12,215.698 124.5,213.5 Z"/></g>
<g><path style="opacity:0.839" fill="#79a4eb" d="M 547.5,215.5 C 549.213,216.635 549.88,218.302 549.5,220.5C 548.463,219.07 547.796,217.403 547.5,215.5 Z"/></g>
<g><path style="opacity:0.647" fill="#797e7f" d="M 464.5,216.5 C 464.573,218.027 463.906,219.027 462.5,219.5C 462.427,217.973 463.094,216.973 464.5,216.5 Z"/></g>
<g><path style="opacity:0.965" fill="#6c6c6b" d="M 364.5,218.5 C 364.59,221.152 363.924,223.485 362.5,225.5C 362.41,222.848 363.076,220.515 364.5,218.5 Z"/></g>
<g><path style="opacity:0.612" fill="#848085" d="M 462.5,219.5 C 462.573,221.027 461.906,222.027 460.5,222.5C 460.427,220.973 461.094,219.973 462.5,219.5 Z"/></g>
<g><path style="opacity:1" fill="#e32f24" d="M 429.5,219.5 C 432.881,227.383 434.881,235.716 435.5,244.5C 438.833,244.5 442.167,244.5 445.5,244.5C 442.038,245.482 438.371,245.815 434.5,245.5C 434.5,245.167 434.5,244.833 434.5,244.5C 433.766,243.292 433.433,241.959 433.5,240.5C 434.01,237.612 433.344,235.279 431.5,233.5C 430.677,230.539 430.01,227.539 429.5,224.5C 429.5,222.833 429.5,221.167 429.5,219.5 Z"/></g>
<g><path style="opacity:1" fill="#7094e0" d="M 549.5,221.5 C 550.5,221.833 551.167,222.5 551.5,223.5C 551.5,225.5 551.5,227.5 551.5,229.5C 550.469,227.039 549.802,224.373 549.5,221.5 Z"/></g>
<g><path style="opacity:1" fill="#6887e7" d="M 572.5,216.5 C 574.118,220.575 575.118,224.908 575.5,229.5C 575.167,229.5 574.833,229.5 574.5,229.5C 572.938,225.343 572.271,221.01 572.5,216.5 Z"/></g>
<g><path style="opacity:0.549" fill="#8c8a8b" d="M 460.5,222.5 C 460.573,224.027 459.906,225.027 458.5,225.5C 458.427,223.973 459.094,222.973 460.5,222.5 Z"/></g>
<g><path style="opacity:1" fill="#f48f8a" d="M 456.5,223.5 C 457.167,224.167 457.833,224.833 458.5,225.5C 458.167,226.5 457.5,227.167 456.5,227.5C 456.5,226.167 456.5,224.833 456.5,223.5 Z"/></g>
<g><path style="opacity:0.796" fill="#888888" d="M 234.5,226.5 C 234.573,228.027 233.906,229.027 232.5,229.5C 232.427,227.973 233.094,226.973 234.5,226.5 Z"/></g>
<g><path style="opacity:0.606" fill="#666666" d="M 47.5,226.5 C 62.4636,228.484 77.7969,229.151 93.5,228.5C 78.0089,229.496 62.3422,229.83 46.5,229.5C 46.2627,228.209 46.596,227.209 47.5,226.5 Z"/></g>
<g><path style="opacity:0.718" fill="#878787" d="M 231.5,230.5 C 231.027,231.906 230.027,232.573 228.5,232.5C 228.973,231.094 229.973,230.427 231.5,230.5 Z"/></g>
<g><path style="opacity:1" fill="#eb8173" d="M 431.5,233.5 C 433.344,235.279 434.01,237.612 433.5,240.5C 432.593,238.343 431.927,236.01 431.5,233.5 Z"/></g>
<g><path style="opacity:0.036" fill="#ededed" d="M 360.5,237.5 C 360.5,240.167 360.5,242.833 360.5,245.5C 351.983,245.826 343.65,245.493 335.5,244.5C 343.5,244.5 351.5,244.5 359.5,244.5C 359.198,241.941 359.532,239.607 360.5,237.5 Z"/></g>
<g><path style="opacity:0.036" fill="#f4f4f4" d="M 399.5,238.5 C 399.5,240.5 399.5,242.5 399.5,244.5C 411.167,244.5 422.833,244.5 434.5,244.5C 434.5,244.833 434.5,245.167 434.5,245.5C 422.5,245.5 410.5,245.5 398.5,245.5C 398.198,242.941 398.532,240.607 399.5,238.5 Z"/></g>
<g><path style="opacity:1" fill="#be392e" d="M 461.5,237.5 C 461.5,238.833 461.5,240.167 461.5,241.5C 460.883,241.389 460.383,241.056 460,240.5C 458.424,243.186 456.591,245.52 454.5,247.5C 455.383,243.039 457.717,239.705 461.5,237.5 Z"/></g>
<g><path style="opacity:1" fill="#5b78e6" d="M 574.5,229.5 C 574.833,229.5 575.167,229.5 575.5,229.5C 578.255,244.587 577.921,259.587 574.5,274.5C 573.833,275.5 573.167,276.5 572.5,277.5C 572.108,274.278 572.608,271.278 574,268.5C 574.5,255.504 574.667,242.504 574.5,229.5 Z"/></g>
<g><path style="opacity:1" fill="#fa0a05" d="M 461.5,241.5 C 462.967,245.702 463.967,250.035 464.5,254.5C 463.768,259.114 464.768,263.114 467.5,266.5C 467.41,269.152 468.076,271.485 469.5,273.5C 470.434,274.568 470.768,275.901 470.5,277.5C 470.248,282.988 470.915,288.322 472.5,293.5C 471.694,294.728 470.694,295.728 469.5,296.5C 464.845,295.994 460.845,297.327 457.5,300.5C 454.415,299.157 451.415,298.157 448.5,297.5C 448.603,294.781 448.269,292.115 447.5,289.5C 447.253,288.287 446.586,287.62 445.5,287.5C 444.699,285.958 444.366,284.292 444.5,282.5C 443.708,273.038 441.708,263.872 438.5,255C 442.688,254.824 446.688,254.324 450.5,253.5C 450.845,250.802 452.178,248.802 454.5,247.5C 456.591,245.52 458.424,243.186 460,240.5C 460.383,241.056 460.883,241.389 461.5,241.5 Z"/></g>
<g><path style="opacity:0.125" fill="#afcdf7" d="M 551.5,231.5 C 552.268,232.263 552.768,233.263 553,234.5C 553.823,243.01 553.657,251.344 552.5,259.5C 552.687,250.139 552.354,240.805 551.5,231.5 Z"/></g>
<g><path style="opacity:0.093" fill="#e3e3e3" d="M 335.5,254.5 C 343.65,253.507 351.983,253.174 360.5,253.5C 360.5,256.167 360.5,258.833 360.5,261.5C 359.532,259.393 359.198,257.059 359.5,254.5C 351.5,254.5 343.5,254.5 335.5,254.5 Z"/></g>
<g><path style="opacity:0.09" fill="#f0f0ef" d="M 437.5,253.5 C 437.5,254.167 437.5,254.833 437.5,255.5C 424.913,254.52 412.246,254.187 399.5,254.5C 399.5,255.5 399.5,256.5 399.5,257.5C 398.566,256.432 398.232,255.099 398.5,253.5C 411.5,253.5 424.5,253.5 437.5,253.5 Z"/></g>
<g><path style="opacity:0.111" fill="#efefef" d="M 47.5,254.5 C 81.3292,253.502 115.329,253.168 149.5,253.5C 149.5,280.167 149.5,306.833 149.5,333.5C 148.502,307.339 148.169,281.005 148.5,254.5C 114.833,254.5 81.1667,254.5 47.5,254.5 Z"/></g>
<g><path style="opacity:0.086" fill="#f3f3f3" d="M 261.5,254.5 C 273.655,253.505 285.989,253.171 298.5,253.5C 298.5,280.167 298.5,306.833 298.5,333.5C 297.502,307.339 297.169,281.005 297.5,254.5C 285.5,254.5 273.5,254.5 261.5,254.5 Z"/></g>
<g><path style="opacity:0.808" fill="#9b9b9b" d="M 102.5,263.5 C 100.766,262.438 99.0992,262.438 97.5,263.5C 98.63,260.116 100.297,260.116 102.5,263.5 Z"/></g>
<g><path style="opacity:1" fill="#e75345" d="M 464.5,254.5 C 466.102,258.239 467.102,262.239 467.5,266.5C 464.768,263.114 463.768,259.114 464.5,254.5 Z"/></g>
<g><path style="opacity:0.961" fill="#767676" d="M 399.5,261.5 C 400.612,263.599 401.279,265.933 401.5,268.5C 399.837,266.562 399.171,264.228 399.5,261.5 Z"/></g>
<g><path style="opacity:1" fill="#2e61e1" d="M 551.5,223.5 C 552.282,226.714 553.115,230.048 554,233.5C 554.832,244.515 554.666,255.515 553.5,266.5C 552.817,266.863 552.15,267.196 551.5,267.5C 551.575,264.794 551.908,262.127 552.5,259.5C 553.657,251.344 553.823,243.01 553,234.5C 552.768,233.263 552.268,232.263 551.5,231.5C 551.5,230.833 551.5,230.167 551.5,229.5C 551.5,227.5 551.5,225.5 551.5,223.5 Z"/></g>
<g><path style="opacity:1" fill="#e35543" d="M 437.5,253.5 C 441.833,253.5 446.167,253.5 450.5,253.5C 446.688,254.324 442.688,254.824 438.5,255C 441.708,263.872 443.708,273.038 444.5,282.5C 441.721,273.72 439.387,264.72 437.5,255.5C 437.5,254.833 437.5,254.167 437.5,253.5 Z"/></g>
<g><path style="opacity:0.718" fill="#8e8e8e" d="M 92.5,268.5 C 92.0269,269.906 91.0269,270.573 89.5,270.5C 89.9731,269.094 90.9731,268.427 92.5,268.5 Z"/></g>
<g><path style="opacity:0.925" fill="#f38382" d="M 467.5,266.5 C 468.924,268.515 469.59,270.848 469.5,273.5C 468.076,271.485 467.41,269.152 467.5,266.5 Z"/></g>
<g><path style="opacity:0.937" fill="#878787" d="M 58.5,270.5 C 59.7095,270.932 60.7095,271.599 61.5,272.5C 59.8212,272.715 58.8212,272.048 58.5,270.5 Z"/></g>
<g><path style="opacity:0.992" fill="#83a3f1" d="M 550.5,274.5 C 550.59,277.152 549.924,279.485 548.5,281.5C 548.41,278.848 549.076,276.515 550.5,274.5 Z"/></g>
<g><path style="opacity:1" fill="#90a5ea" d="M 574.5,274.5 C 574.102,278.761 573.102,282.761 571.5,286.5C 571.368,283.43 571.701,280.43 572.5,277.5C 573.167,276.5 573.833,275.5 574.5,274.5 Z"/></g>
<g><path style="opacity:1" fill="#e65043" d="M 470.5,277.5 C 471.861,282.278 473.528,286.944 475.5,291.5C 474.71,292.401 473.71,293.068 472.5,293.5C 470.915,288.322 470.248,282.988 470.5,277.5 Z"/></g>
<g><path style="opacity:0.659" fill="#9e9e9e" d="M 28.5,285.5 C 30.0269,285.427 31.0269,286.094 31.5,287.5C 29.9731,287.573 28.9731,286.906 28.5,285.5 Z"/></g>
<g><path style="opacity:1" fill="#ed7066" d="M 445.5,287.5 C 446.586,287.62 447.253,288.287 447.5,289.5C 448.269,292.115 448.603,294.781 448.5,297.5C 446.899,294.45 445.899,291.116 445.5,287.5 Z"/></g>
<g><path style="opacity:1" fill="#5176e6" d="M 548.5,281.5 C 548.765,285.653 547.431,288.987 544.5,291.5C 545.321,287.873 546.654,284.54 548.5,281.5 Z"/></g>
<g><path style="opacity:0.357" fill="#aaaaaa" d="M 33.5,289.5 C 35.0269,289.427 36.0269,290.094 36.5,291.5C 34.9731,291.573 33.9731,290.906 33.5,289.5 Z"/></g>
<g><path style="opacity:1" fill="#8399ed" d="M 570.5,290.5 C 570.065,293.157 569.065,295.491 567.5,297.5C 566.979,294.364 567.979,292.03 570.5,290.5 Z"/></g>
<g><path style="opacity:1" fill="#0759fb" d="M 353.5,294.5 C 355.75,297.999 357.75,301.665 359.5,305.5C 359.427,307.027 360.094,308.027 361.5,308.5C 361.427,310.027 362.094,311.027 363.5,311.5C 364.5,311.833 365.167,312.5 365.5,313.5C 365.427,315.027 366.094,316.027 367.5,316.5C 368.5,316.833 369.167,317.5 369.5,318.5C 369.5,320.5 370.5,321.5 372.5,321.5C 372.525,324.179 373.858,325.512 376.5,325.5C 376.525,328.179 377.858,329.512 380.5,329.5C 380.539,330.583 380.873,331.583 381.5,332.5C 377.73,335.455 378.396,336.121 383.5,334.5C 386.143,336.655 389.143,337.988 392.5,338.5C 392.833,338.5 393.167,338.5 393.5,338.5C 393.877,340.258 394.544,341.925 395.5,343.5C 399.401,344.704 403.234,346.037 407,347.5C 407.383,346.944 407.883,346.611 408.5,346.5C 408.369,347.376 408.702,348.043 409.5,348.5C 423.025,353.547 437.025,356.38 451.5,357C 452.053,358.878 453.053,360.378 454.5,361.5C 454.299,366.71 454.966,371.71 456.5,376.5C 445.482,376.619 434.482,376.286 423.5,375.5C 421.585,375.784 419.919,375.451 418.5,374.5C 416.485,373.076 414.152,372.41 411.5,372.5C 409.901,372.768 408.568,372.434 407.5,371.5C 404.987,368.569 401.653,367.235 397.5,367.5C 397.586,366.504 397.252,365.671 396.5,365C 393.883,364.178 391.216,363.678 388.5,363.5C 387.656,361.241 385.989,360.241 383.5,360.5C 383.027,359.094 382.027,358.427 380.5,358.5C 380.027,357.094 379.027,356.427 377.5,356.5C 376.878,353.224 374.878,351.891 371.5,352.5C 370.738,350.738 369.404,349.738 367.5,349.5C 366.5,349.167 365.833,348.5 365.5,347.5C 363.752,344.084 361.086,341.75 357.5,340.5C 356.634,337.833 355.634,335.167 354.5,332.5C 353.264,331.754 351.93,331.421 350.5,331.5C 348.281,317.956 347.947,304.289 349.5,290.5C 350.324,292.421 351.657,293.754 353.5,294.5 Z"/></g>
<g><path style="opacity:1" fill="#6685e6" d="M 544.5,291.5 C 544.969,294.393 543.969,296.393 541.5,297.5C 541.992,295.181 542.992,293.181 544.5,291.5 Z"/></g>
<g><path style="opacity:0.965" fill="#7e7e7e" d="M 424.5,297.5 C 425.71,297.932 426.71,298.599 427.5,299.5C 425.821,299.715 424.821,299.048 424.5,297.5 Z"/></g>
<g><path style="opacity:1" fill="#e12217" d="M 469.5,296.5 C 466.493,299.48 462.826,301.147 458.5,301.5C 455.545,302.159 452.545,302.492 449.5,302.5C 448.699,300.958 448.366,299.292 448.5,297.5C 451.415,298.157 454.415,299.157 457.5,300.5C 460.845,297.327 464.845,295.994 469.5,296.5 Z"/></g>
<g><path style="opacity:1" fill="#9a574c" d="M 458.5,301.5 C 458.082,302.222 457.416,302.722 456.5,303C 449.986,303.82 443.653,303.653 437.5,302.5C 441.5,302.5 445.5,302.5 449.5,302.5C 452.545,302.492 455.545,302.159 458.5,301.5 Z"/></g>
<g><path style="opacity:1" fill="#5c82df" d="M 541.5,297.5 C 541.969,300.393 540.969,302.393 538.5,303.5C 538.992,301.181 539.992,299.181 541.5,297.5 Z"/></g>
<g><path style="opacity:1" fill="#708ce8" d="M 567.5,298.5 C 566.341,302.151 564.674,305.485 562.5,308.5C 562.784,305.368 563.617,302.368 565,299.5C 565.671,298.748 566.504,298.414 567.5,298.5 Z"/></g>
<g><path style="opacity:0.882" fill="#8eb1ea" d="M 359.5,305.5 C 360.906,305.973 361.573,306.973 361.5,308.5C 360.094,308.027 359.427,307.027 359.5,305.5 Z"/></g>
<g><path style="opacity:1" fill="#708dea" d="M 538.5,303.5 C 538.658,306.522 537.325,308.522 534.5,309.5C 535.34,307.147 536.674,305.147 538.5,303.5 Z"/></g>
<g><path style="opacity:0.384" fill="#999999" d="M 509.5,306.5 C 511.382,307.221 511.715,308.221 510.5,309.5C 509.89,308.609 509.557,307.609 509.5,306.5 Z"/></g>
<g><path style="opacity:0.898" fill="#8ea4ed" d="M 361.5,308.5 C 362.906,308.973 363.573,309.973 363.5,311.5C 362.094,311.027 361.427,310.027 361.5,308.5 Z"/></g>
<g><path style="opacity:0.91" fill="#90b0f6" d="M 534.5,309.5 C 534.262,311.404 533.262,312.738 531.5,313.5C 531.738,311.596 532.738,310.262 534.5,309.5 Z"/></g>
<g><path style="opacity:0.788" fill="#9b9a9b" d="M 382.5,311.5 C 385.089,312.419 387.089,314.086 388.5,316.5C 385.911,315.581 383.911,313.914 382.5,311.5 Z"/></g>
<g><path style="opacity:0.918" fill="#4273e4" d="M 353.5,294.5 C 351.657,293.754 350.324,292.421 349.5,290.5C 347.947,304.289 348.281,317.956 350.5,331.5C 351.93,331.421 353.264,331.754 354.5,332.5C 355.634,335.167 356.634,337.833 357.5,340.5C 355.833,339.5 354.5,338.167 353.5,336.5C 353.512,333.858 352.179,332.525 349.5,332.5C 349.217,331.711 348.717,331.044 348,330.5C 347.333,313.5 347.333,296.5 348,279.5C 349.939,284.485 351.772,289.485 353.5,294.5 Z"/></g>
<g><path style="opacity:1" fill="#6181e1" d="M 561.5,310.5 C 561.25,312.674 560.25,314.341 558.5,315.5C 557.916,312.715 558.916,311.048 561.5,310.5 Z"/></g>
<g><path style="opacity:0.831" fill="#99adeb" d="M 365.5,313.5 C 366.906,313.973 367.573,314.973 367.5,316.5C 366.094,316.027 365.427,315.027 365.5,313.5 Z"/></g>
<g><path style="opacity:0.886" fill="#7d8078" d="M 390.5,318.5 C 392.404,318.738 393.738,319.738 394.5,321.5C 392.596,321.262 391.262,320.262 390.5,318.5 Z"/></g>
<g><path style="opacity:1" fill="#5073e4" d="M 531.5,313.5 C 531.657,314.873 531.49,316.207 531,317.5C 527.272,320.738 523.439,323.738 519.5,326.5C 523.528,322.141 527.528,317.807 531.5,313.5 Z"/></g>
<g><path style="opacity:0.835" fill="#a4bae9" d="M 369.5,318.5 C 370.833,319.167 371.833,320.167 372.5,321.5C 370.5,321.5 369.5,320.5 369.5,318.5 Z"/></g>
<g><path style="opacity:1" fill="#4f70f2" d="M 558.5,315.5 C 555.144,322.215 550.81,328.215 545.5,333.5C 545.035,329.208 545.868,325.208 548,321.5C 548.419,322.672 549.085,323.672 550,324.5C 550.71,323.027 551.876,322.36 553.5,322.5C 553.703,320.61 553.037,319.11 551.5,318C 553.441,316.097 555.774,315.264 558.5,315.5 Z"/></g>
<g><path style="opacity:0.4" fill="#9aa1a0" d="M 394.5,321.5 C 396.027,321.427 397.027,322.094 397.5,323.5C 395.973,323.573 394.973,322.906 394.5,321.5 Z"/></g>
<g><path style="opacity:1" fill="#7b8fec" d="M 372.5,321.5 C 374.167,322.5 375.5,323.833 376.5,325.5C 373.858,325.512 372.525,324.179 372.5,321.5 Z"/></g>
<g><path style="opacity:0.404" fill="#9c9d9c" d="M 399.5,324.5 C 401.027,324.427 402.027,325.094 402.5,326.5C 400.973,326.573 399.973,325.906 399.5,324.5 Z"/></g>
<g><path style="opacity:1" fill="#6784e8" d="M 376.5,325.5 C 378.167,326.5 379.5,327.833 380.5,329.5C 377.858,329.512 376.525,328.179 376.5,325.5 Z"/></g>
<g><path style="opacity:1" fill="#5374eb" d="M 519.5,326.5 C 519.5,327.833 519.5,329.167 519.5,330.5C 518.127,330.343 516.793,330.51 515.5,331C 512.396,335.699 508.063,338.532 502.5,339.5C 502.973,338.094 503.973,337.427 505.5,337.5C 507.027,337.573 508.027,336.906 508.5,335.5C 511.851,332.152 515.518,329.152 519.5,326.5 Z"/></g>
<g><path style="opacity:1" fill="#606060" d="M 413.5,331.5 C 416.152,331.41 418.485,332.076 420.5,333.5C 417.848,333.59 415.515,332.924 413.5,331.5 Z"/></g>
<g><path style="opacity:1" fill="#8098f0" d="M 349.5,332.5 C 352.179,332.525 353.512,333.858 353.5,336.5C 351.833,335.5 350.5,334.167 349.5,332.5 Z"/></g>
<g><path style="opacity:1" fill="#446aee" d="M 380.5,329.5 C 384.538,332.512 388.538,335.512 392.5,338.5C 389.143,337.988 386.143,336.655 383.5,334.5C 378.396,336.121 377.73,335.455 381.5,332.5C 380.873,331.583 380.539,330.583 380.5,329.5 Z"/></g>
<g><path style="opacity:0.694" fill="#737474" d="M 420.5,333.5 C 423.152,333.41 425.485,334.076 427.5,335.5C 424.848,335.59 422.515,334.924 420.5,333.5 Z"/></g>
<g><path style="opacity:1" fill="#f90904" d="M 480.5,332.5 C 481.833,332.5 483.167,332.5 484.5,332.5C 484.263,333.791 484.596,334.791 485.5,335.5C 485.503,339.524 485.836,343.524 486.5,347.5C 486.836,350.841 488.17,353.508 490.5,355.5C 490.41,358.152 491.076,360.485 492.5,362.5C 491.964,365.698 492.631,368.365 494.5,370.5C 495.434,371.568 495.768,372.901 495.5,374.5C 495.41,377.152 496.076,379.485 497.5,381.5C 498.634,384.37 499.3,387.37 499.5,390.5C 499.41,393.152 500.076,395.485 501.5,397.5C 502.71,400.477 503.71,403.644 504.5,407C 504.43,407.765 504.097,408.265 503.5,408.5C 500.918,408.025 498.918,408.692 497.5,410.5C 497.167,410.5 496.833,410.5 496.5,410.5C 492.154,410.334 487.821,410.501 483.5,411C 484.381,411.708 485.047,412.542 485.5,413.5C 483.167,413.5 480.833,413.5 478.5,413.5C 478.675,411.379 478.341,409.379 477.5,407.5C 476.337,401.513 475.171,395.513 474,389.5C 473.414,386.981 472.247,384.981 470.5,383.5C 470.663,381.143 470.497,378.81 470,376.5C 469.8,374.68 468.966,373.347 467.5,372.5C 466.699,370.958 466.366,369.292 466.5,367.5C 466.665,364.15 466.498,360.817 466,357.5C 465.261,355.111 464.095,353.111 462.5,351.5C 462.043,346.799 461.376,342.132 460.5,337.5C 464.56,337.515 468.56,337.015 472.5,336C 473.056,335.617 473.389,335.117 473.5,334.5C 475.515,333.076 477.848,332.41 480.5,332.5 Z"/></g>
<g><path style="opacity:0.878" fill="#db6159" d="M 484.5,330.5 C 485.301,332.042 485.634,333.708 485.5,335.5C 484.596,334.791 484.263,333.791 484.5,332.5C 483.167,332.5 481.833,332.5 480.5,332.5C 481.671,331.655 483.005,330.989 484.5,330.5 Z"/></g>
<g><path style="opacity:1" fill="#b4110e" d="M 473.5,334.5 C 473.389,335.117 473.056,335.617 472.5,336C 468.56,337.015 464.56,337.515 460.5,337.5C 460.167,337.5 459.833,337.5 459.5,337.5C 463.942,336.01 468.609,335.01 473.5,334.5 Z"/></g>
<g><path style="opacity:0.898" fill="#89a9f2" d="M 508.5,335.5 C 508.027,336.906 507.027,337.573 505.5,337.5C 505.973,336.094 506.973,335.427 508.5,335.5 Z"/></g>
<g><path style="opacity:1" fill="#8093e9" d="M 539.5,336.5 C 540.5,336.5 541.5,336.5 542.5,336.5C 542.262,338.404 541.262,339.738 539.5,340.5C 539.5,339.167 539.5,337.833 539.5,336.5 Z"/></g>
<g><path style="opacity:1" fill="#eb7365" d="M 458.5,337.5 C 458.833,337.5 459.167,337.5 459.5,337.5C 459.833,337.5 460.167,337.5 460.5,337.5C 461.376,342.132 462.043,346.799 462.5,351.5C 460.566,347.112 459.233,342.445 458.5,337.5 Z"/></g>
<g><path style="opacity:1" fill="#4f6fee" d="M 539.5,336.5 C 539.5,337.833 539.5,339.167 539.5,340.5C 537.766,343.2 535.432,345.2 532.5,346.5C 532.423,343.491 533.756,341.324 536.5,340C 536.167,339.667 535.833,339.333 535.5,339C 537.642,338.562 538.975,337.728 539.5,336.5 Z"/></g>
<g><path style="opacity:1" fill="#6c88e6" d="M 357.5,340.5 C 361.086,341.75 363.752,344.084 365.5,347.5C 362.236,345.906 359.569,343.573 357.5,340.5 Z"/></g>
<g><path style="opacity:1" fill="#6282e2" d="M 502.5,339.5 C 502.25,340.922 501.417,341.922 500,342.5C 499.503,344.81 499.337,347.143 499.5,349.5C 497.797,347.149 497.297,344.482 498,341.5C 499.33,340.418 500.83,339.751 502.5,339.5 Z"/></g>
<g><path style="opacity:1" fill="#5373e9" d="M 393.5,338.5 C 398.408,341.452 403.408,344.119 408.5,346.5C 407.883,346.611 407.383,346.944 407,347.5C 403.234,346.037 399.401,344.704 395.5,343.5C 394.544,341.925 393.877,340.258 393.5,338.5 Z"/></g>
<g><path style="opacity:1" fill="#5b7ce9" d="M 532.5,346.5 C 530.051,349.556 527.051,351.889 523.5,353.5C 523.5,352.5 523.5,351.5 523.5,350.5C 524.5,350.5 525.5,350.5 526.5,350.5C 527.031,347.221 529.031,345.887 532.5,346.5 Z"/></g>
<g><path style="opacity:0.882" fill="#93b4ee" d="M 367.5,349.5 C 369.404,349.738 370.738,350.738 371.5,352.5C 369.596,352.262 368.262,351.262 367.5,349.5 Z"/></g>
<g><path style="opacity:1" fill="#eb4132" d="M 485.5,335.5 C 487.768,341.906 489.435,348.573 490.5,355.5C 488.17,353.508 486.836,350.841 486.5,347.5C 485.836,343.524 485.503,339.524 485.5,335.5 Z"/></g>
<g><path style="opacity:0.859" fill="#85a7e8" d="M 417.5,349.5 C 419.698,349.875 421.698,350.542 423.5,351.5C 420.99,351.946 418.99,351.28 417.5,349.5 Z"/></g>
<g><path style="opacity:1" fill="#5c7fe7" d="M 371.5,352.5 C 374.878,351.891 376.878,353.224 377.5,356.5C 374.802,356.155 372.802,354.822 371.5,352.5 Z"/></g>
<g><path style="opacity:1" fill="#5272e5" d="M 408.5,346.5 C 411.579,347.304 414.579,348.304 417.5,349.5C 418.99,351.28 420.99,351.946 423.5,351.5C 433.421,353.232 443.421,354.232 453.5,354.5C 453.993,356.806 454.326,359.139 454.5,361.5C 453.053,360.378 452.053,358.878 451.5,357C 437.025,356.38 423.025,353.547 409.5,348.5C 408.702,348.043 408.369,347.376 408.5,346.5 Z"/></g>
<g><path style="opacity:1" fill="#6a85ed" d="M 523.5,353.5 C 521.45,355.547 519.117,357.214 516.5,358.5C 517.301,356.958 517.634,355.292 517.5,353.5C 519.5,353.5 521.5,353.5 523.5,353.5 Z"/></g>
<g><path style="opacity:0.675" fill="#8da8ec" d="M 377.5,356.5 C 379.027,356.427 380.027,357.094 380.5,358.5C 378.973,358.573 377.973,357.906 377.5,356.5 Z"/></g>
<g><path style="opacity:0.529" fill="#96aef6" d="M 380.5,358.5 C 382.027,358.427 383.027,359.094 383.5,360.5C 381.973,360.573 380.973,359.906 380.5,358.5 Z"/></g>
<g><path style="opacity:1" fill="#4c6feb" d="M 499.5,351.5 C 500.5,351.5 501.5,351.5 502.5,351.5C 502.351,354.607 502.851,357.607 504,360.5C 506.496,359.901 508.996,360.235 511.5,361.5C 510.486,362.674 509.153,363.34 507.5,363.5C 505.833,363.5 504.167,363.5 502.5,363.5C 501.5,359.5 500.5,355.5 499.5,351.5 Z"/></g>
<g><path style="opacity:1" fill="#6a8de4" d="M 383.5,360.5 C 385.989,360.241 387.656,361.241 388.5,363.5C 386.566,362.89 384.899,361.89 383.5,360.5 Z"/></g>
<g><path style="opacity:1" fill="#ea5748" d="M 462.5,351.5 C 464.095,353.111 465.261,355.111 466,357.5C 466.498,360.817 466.665,364.15 466.5,367.5C 464.548,362.436 463.215,357.103 462.5,351.5 Z"/></g>
<g><path style="opacity:0.725" fill="#f18780" d="M 490.5,355.5 C 491.924,357.515 492.59,359.848 492.5,362.5C 491.076,360.485 490.41,358.152 490.5,355.5 Z"/></g>
<g><path style="opacity:1" fill="#859fe4" d="M 502.5,363.5 C 504.167,363.5 505.833,363.5 507.5,363.5C 505.583,365.851 503.916,365.851 502.5,363.5 Z"/></g>
<g><path style="opacity:1" fill="#5c7ce6" d="M 388.5,363.5 C 391.216,363.678 393.883,364.178 396.5,365C 397.252,365.671 397.586,366.504 397.5,367.5C 394.256,366.537 391.256,365.204 388.5,363.5 Z"/></g>
<g><path style="opacity:1" fill="#4e75e6" d="M 397.5,367.5 C 401.653,367.235 404.987,368.569 407.5,371.5C 403.873,370.679 400.54,369.346 397.5,367.5 Z"/></g>
<g><path style="opacity:1" fill="#e85748" d="M 492.5,362.5 C 493.768,364.905 494.435,367.572 494.5,370.5C 492.631,368.365 491.964,365.698 492.5,362.5 Z"/></g>
<g><path style="opacity:0.812" fill="#759aea" d="M 411.5,372.5 C 414.152,372.41 416.485,373.076 418.5,374.5C 415.848,374.59 413.515,373.924 411.5,372.5 Z"/></g>
<g><path style="opacity:1" fill="#eb7363" d="M 467.5,372.5 C 468.966,373.347 469.8,374.68 470,376.5C 470.497,378.81 470.663,381.143 470.5,383.5C 469.055,380.063 468.055,376.397 467.5,372.5 Z"/></g>
<g><path style="opacity:1" fill="#6380e3" d="M 454.5,361.5 C 456.119,365.959 457.452,370.626 458.5,375.5C 458.392,376.442 458.059,377.275 457.5,378C 445.902,378.895 434.568,378.062 423.5,375.5C 434.482,376.286 445.482,376.619 456.5,376.5C 454.966,371.71 454.299,366.71 454.5,361.5 Z"/></g>
<g><path style="opacity:0.957" fill="#ef867d" d="M 495.5,374.5 C 496.924,376.515 497.59,378.848 497.5,381.5C 496.076,379.485 495.41,377.152 495.5,374.5 Z"/></g>
<g><path style="opacity:1" fill="#ea5f4e" d="M 470.5,383.5 C 472.247,384.981 473.414,386.981 474,389.5C 475.171,395.513 476.337,401.513 477.5,407.5C 477.167,407.5 476.833,407.5 476.5,407.5C 474.192,399.6 472.192,391.6 470.5,383.5 Z"/></g>
<g><path style="opacity:0.945" fill="#ef837d" d="M 499.5,390.5 C 500.924,392.515 501.59,394.848 501.5,397.5C 500.076,395.485 499.41,393.152 499.5,390.5 Z"/></g>
<g><path style="opacity:1" fill="#f27467" d="M 503.5,408.5 C 501.786,409.738 499.786,410.405 497.5,410.5C 498.918,408.692 500.918,408.025 503.5,408.5 Z"/></g>
<g><path style="opacity:1" fill="#f05746" d="M 496.5,410.5 C 493.063,411.945 489.397,412.945 485.5,413.5C 485.047,412.542 484.381,411.708 483.5,411C 487.821,410.501 492.154,410.334 496.5,410.5 Z"/></g>
<g><path style="opacity:1" fill="#e57d72" d="M 476.5,407.5 C 476.833,407.5 477.167,407.5 477.5,407.5C 478.341,409.379 478.675,411.379 478.5,413.5C 480.833,413.5 483.167,413.5 485.5,413.5C 479.003,417.373 476.003,415.373 476.5,407.5 Z"/></g>
</svg>
